<?xml version="1.0" encoding="UTF-8"?>
<!DOCTYPE svg PUBLIC "-//W3C//DTD SVG 1.1//EN" "http://www.w3.org/Graphics/SVG/1.1/DTD/svg11.dtd">
<svg xmlns="http://www.w3.org/2000/svg" version="1.1" width="722px" height="244px" style="shape-rendering:geometricPrecision; text-rendering:geometricPrecision; image-rendering:optimizeQuality; fill-rule:evenodd; clip-rule:evenodd" xmlns:xlink="http://www.w3.org/1999/xlink">
<g><path style="opacity:0.469" fill="#fefffe" d="M 137.5,-0.5 C 145.167,-0.5 152.833,-0.5 160.5,-0.5C 173.372,2.44028 184.372,8.77361 193.5,18.5C 208.101,9.19649 223.768,2.86315 240.5,-0.5C 248.167,-0.5 255.833,-0.5 263.5,-0.5C 276.372,2.44028 287.372,8.77361 296.5,18.5C 310.785,9.41095 326.119,3.07761 342.5,-0.5C 350.5,-0.5 358.5,-0.5 366.5,-0.5C 379.376,2.44233 390.376,8.77566 399.5,18.5C 413.785,9.41095 429.119,3.07761 445.5,-0.5C 453.5,-0.5 461.5,-0.5 469.5,-0.5C 482.332,2.33531 493.165,8.66864 502,18.5C 516.498,9.49427 531.998,3.16094 548.5,-0.5C 556.5,-0.5 564.5,-0.5 572.5,-0.5C 585.181,2.68312 596.015,9.01645 605,18.5C 619.498,9.49427 634.998,3.16094 651.5,-0.5C 659.167,-0.5 666.833,-0.5 674.5,-0.5C 701.743,6.75099 717.41,24.4177 721.5,52.5C 721.5,56.5 721.5,60.5 721.5,64.5C 712.623,8.55606 681.29,-9.61061 627.5,10C 620.011,13.2413 613.011,17.2413 606.5,22C 615.331,35.9825 619.665,51.3158 619.5,68C 614.17,122.658 591.504,168.658 551.5,206C 544.784,211.717 537.784,217.05 530.5,222C 541.055,234.702 554.721,241.202 571.5,241.5C 598.944,238.691 623.111,228.358 644,210.5C 644.72,212.112 644.554,213.612 643.5,215C 625.623,229.107 605.623,238.607 583.5,243.5C 575.833,243.5 568.167,243.5 560.5,243.5C 547.628,240.56 536.628,234.226 527.5,224.5C 513.181,233.598 497.847,239.931 481.5,243.5C 473.5,243.5 465.5,243.5 457.5,243.5C 444.257,240.793 433.424,234.126 425,223.5C 410.808,233.349 395.308,240.016 378.5,243.5C 370.5,243.5 362.5,243.5 354.5,243.5C 341.624,240.558 330.624,234.224 321.5,224.5C 307.235,233.639 291.902,239.972 275.5,243.5C 267.5,243.5 259.5,243.5 251.5,243.5C 238.668,240.665 227.835,234.331 219,224.5C 204.502,233.506 189.002,239.839 172.5,243.5C 164.5,243.5 156.5,243.5 148.5,243.5C 135.842,240.353 125.008,234.019 116,224.5C 101.502,233.506 86.0024,239.839 69.5,243.5C 61.8333,243.5 54.1667,243.5 46.5,243.5C 18.7981,236.123 3.13142,218.123 -0.5,189.5C -0.5,179.833 -0.5,170.167 -0.5,160.5C 10.6673,100.314 41.3339,52.8137 91.5,18C 105.811,8.95975 121.144,2.79308 137.5,-0.5 Z M 146.5,1.5 C 160.714,1.18282 173.381,5.34949 184.5,14C 186.874,16.039 188.874,18.3723 190.5,21C 144.803,53.5132 115.97,97.3466 104,152.5C 100.415,169.989 101.082,187.323 106,204.5C 108.18,210.361 111.013,215.861 114.5,221C 97.5167,233.274 78.5167,240.107 57.5,241.5C 26.0209,238.857 7.85422,221.857 3,190.5C 0.392086,160.254 6.05875,131.587 20,104.5C 36.8286,70.3752 60.9953,42.5419 92.5,21C 109.09,10.1957 127.09,3.69565 146.5,1.5 Z M 249.5,1.5 C 267.375,1.1655 282.041,7.6655 293.5,21C 249.76,52.2725 221.26,94.1059 208,146.5C 202.43,168.954 203.764,190.954 212,212.5C 213.439,215.603 215.273,218.436 217.5,221C 200.369,232.893 181.369,239.726 160.5,241.5C 143.859,241.343 130.192,235.01 119.5,222.5C 167.735,187.052 196.901,139.719 207,80.5C 209.785,59.4692 205.952,39.8026 195.5,21.5C 211.927,10.2504 229.927,3.5837 249.5,1.5 Z M 352.5,1.5 C 369.933,1.07921 384.266,7.41254 395.5,20.5C 352.53,52.0028 324.363,93.6695 311,145.5C 305.561,167.491 306.561,189.158 314,210.5C 315.413,213.661 317.08,216.661 319,219.5C 319.749,220.635 319.583,221.635 318.5,222.5C 301.641,233.509 283.141,239.842 263,241.5C 246.563,241.196 233.063,234.862 222.5,222.5C 225.495,219.675 228.662,217.008 232,214.5C 232.667,213.167 232.667,211.833 232,210.5C 228.31,213.691 224.477,216.691 220.5,219.5C 215.769,214.038 212.603,207.705 211,200.5C 205.478,173.857 207.811,147.857 218,122.5C 233.986,81.862 259.652,48.862 295,23.5C 303.475,35.7654 307.642,49.4321 307.5,64.5C 308.5,64.5 309.5,64.5 310.5,64.5C 310.462,49.1779 306.462,35.0113 298.5,22C 314.694,10.3253 332.694,3.492 352.5,1.5 Z M 455.5,1.5 C 472.933,1.07921 487.266,7.41254 498.5,20.5C 454.527,53.0759 426.027,96.0759 413,149.5C 409.395,167.253 409.729,184.919 414,202.5C 416.166,208.996 418.999,215.163 422.5,221C 405.715,233.154 386.882,239.987 366,241.5C 349.563,241.196 336.063,234.862 325.5,222.5C 365.782,192.635 393.282,153.635 408,105.5C 414.273,84.315 414.94,62.9817 410,41.5C 408.112,34.5604 405.279,28.0604 401.5,22C 417.694,10.3253 435.694,3.492 455.5,1.5 Z M 557.5,1.5 C 575.298,0.867879 589.965,7.20121 601.5,20.5C 558.939,51.9167 530.772,93.25 517,144.5C 512.829,162.77 512.496,181.103 516,199.5C 518.299,207.238 521.466,214.571 525.5,221.5C 508.517,233.218 489.683,239.884 469,241.5C 452.034,241.306 438.201,234.806 427.5,222C 431.278,219.888 434.778,217.388 438,214.5C 438.749,213.365 438.583,212.365 437.5,211.5C 433.805,214.362 429.971,217.028 426,219.5C 419.04,209.623 415.04,198.623 414,186.5C 412.629,151.986 420.962,119.986 439,90.5C 454.458,63.6215 474.958,41.2881 500.5,23.5C 504.344,27.8469 507.177,32.8469 509,38.5C 511.642,46.9698 513.142,55.6365 513.5,64.5C 514.5,64.5 515.5,64.5 516.5,64.5C 516.409,48.9526 512.076,34.7859 503.5,22C 519.903,10.7027 537.903,3.86935 557.5,1.5 Z M 191.5,23.5 C 196.187,28.1975 199.354,33.8642 201,40.5C 207.33,68.1994 204.996,95.1994 194,121.5C 178.32,161.874 152.82,194.541 117.5,219.5C 113.305,213.793 110.138,207.46 108,200.5C 102.477,173.066 105.143,146.4 116,120.5C 132.084,80.9369 157.251,48.6035 191.5,23.5 Z M 397.5,23.5 C 401.941,28.7098 405.107,34.7098 407,41.5C 412.905,69.6085 410.238,96.9418 399,123.5C 383.147,162.898 357.98,194.898 323.5,219.5C 319.046,214.263 315.88,208.263 314,201.5C 308.095,173.391 310.762,146.058 322,119.5C 338.356,80.3949 363.523,48.3949 397.5,23.5 Z M 602.5,23.5 C 603.496,23.4142 604.329,23.7476 605,24.5C 615.946,45.3299 618.946,67.3299 614,90.5C 601.905,144.398 573.572,187.398 529,219.5C 522.067,210.38 518.067,200.046 517,188.5C 515.041,155.335 522.374,124.335 539,95.5C 555.312,67.2007 576.479,43.2007 602.5,23.5 Z"/></g>
</svg>
